{
  "accessors": [
    {
      "bufferView": 2,
      "componentType": 5126,
      "count": 861,
      "max": [
        1.887970209121704,
        5.439667224884033,
        1.4239435195922852
      ],
      "min": [
        -1.887970209121704,
        2.4394192695617676,
        -1.6452057361602783
      ],
      "type": "VEC3"
    },
    {
      "bufferView": 2,
      "byteOffset": 10332,
      "componentType": 5126,
      "count": 861,
      "max": [
        0.9964728951454163,
        1.0,
        0.995613157749176
      ],
      "min": [
        -0.9964728951454163,
        -1.0,
        -0.9974856376647949
      ],
      "type": "VEC3"
    },
    {
      "bufferView": 1,
      "componentType": 5126,
      "count": 861,
      "max": [
        1.0,
        1.0
      ],
      "min": [
        0.0,
        0.0
      ],
      "type": "VEC2"
    },
    {
      "bufferView": 0,
      "componentType": 5125,
      "count": 1410,
      "type": "SCALAR"
    },
    {
      "bufferView": 2,
      "byteOffset": 20664,
      "componentType": 5126,
      "count": 304,
      "max": [
        4.164191246032715,
        12.905174255371094,
        0.3419432044029236
      ],
      "min": [
        2.4425768852233887,
        11.13125991821289,
        -0.9665696620941162
      ],
      "type": "VEC3"
    },
    {
      "bufferView": 2,
      "byteOffset": 24312,
      "componentType": 5126,
      "count": 304,
      "max": [
        0.7482783794403076,
        0.9610406160354614,
        0.9092238545417786
      ],
      "min": [
        -0.8758795857429504,
        -0.9984254837036133,
        -0.9811578392982483
      ],
      "type": "VEC3"
    },
    {
      "bufferView": 1,
      "byteOffset": 6888,
      "componentType": 5126,
      "count": 304,
      "max": [
        22.152740478515625,
        17.609325408935547
      ],
      "min": [
        -17.75807762145996,
        -31.334609985351563
      ],
      "type": "VEC2"
    },
    {
      "bufferView": 0,
      "byteOffset": 5640,
      "componentType": 5125,
      "count": 408,
      "type": "SCALAR"
    },
    {
      "bufferView": 2,
      "byteOffset": 27960,
      "componentType": 5126,
      "count": 304,
      "max": [
        -2.4425768852233887,
        12.905174255371094,
        0.3419432044029236
      ],
      "min": [
        -4.164191722869873,
        11.13125991821289,
        -0.9665696620941162
      ],
      "type": "VEC3"
    },
    {
      "bufferView": 2,
      "byteOffset": 31608,
      "componentType": 5126,
      "count": 304,
      "max": [
        0.8758795857429504,
        0.9610406160354614,
        0.9092238545417786
      ],
      "min": [
        -0.7482776045799255,
        -0.9984254837036133,
        -0.9811578392982483
      ],
      "type": "VEC3"
    },
    {
      "bufferView": 1,
      "byteOffset": 9320,
      "componentType": 5126,
      "count": 304,
      "max": [
        22.152740478515625,
        17.609325408935547
      ],
      "min": [
        -17.75807762145996,
        -31.334609985351563
      ],
      "type": "VEC2"
    },
    {
      "bufferView": 0,
      "byteOffset": 7272,
      "componentType": 5125,
      "count": 408,
      "type": "SCALAR"
    },
    {
      "bufferView": 2,
      "byteOffset": 35256,
      "componentType": 5126,
      "count": 14,
      "max": [
        0.2495877742767334,
        13.632747650146484,
        3.3927836418151855
      ],
      "min": [
        -0.2495877742767334,
        12.401859283447266,
        2.949166774749756
      ],
      "type": "VEC3"
    },
    {
      "bufferView": 2,
      "byteOffset": 35424,
      "componentType": 5126,
      "count": 14,
      "max": [
        0.8067813515663147,
        0.21182478964328766,
        0.5515742897987366
      ],
      "min": [
        -0.8067812919616699,
        -0.9755157828330994,
        -0.9961984157562256
      ],
      "type": "VEC3"
    },
    {
      "bufferView": 1,
      "byteOffset": 11752,
      "componentType": 5126,
      "count": 14,
      "max": [
        0.8748241066932678,
        0.9999998211860657
      ],
      "min": [
        0.12517982721328735,
        0.0
      ],
      "type": "VEC2"
    },
    {
      "bufferView": 0,
      "byteOffset": 8904,
      "componentType": 5125,
      "count": 18,
      "type": "SCALAR"
    },
    {
      "bufferView": 2,
      "byteOffset": 35592,
      "componentType": 5126,
      "count": 1660,
      "max": [
        1.3114650249481201,
        1.0261894464492798,
        1.3023593425750732
      ],
      "min": [
        0.4290871322154999,
        -1.862645149230957e-09,
        -0.5836058855056763
      ],
      "type": "VEC3"
    },
    {
      "bufferView": 2,
      "byteOffset": 55512,
      "componentType": 5126,
      "count": 1660,
      "max": [
        0.9998447895050049,
        1.0,
        1.0
      ],
      "min": [
        -0.9999868273735046,
        -1.0,
        -0.9787130355834961
      ],
      "type": "VEC3"
    },
    {
      "bufferView": 1,
      "byteOffset": 11864,
      "componentType": 5126,
      "count": 1660,
      "max": [
        2.481407880783081,
        1.3476545810699463
      ],
      "min": [
        -1.4397671222686768,
        -1.2935142517089844
      ],
      "type": "VEC2"
    },
    {
      "bufferView": 0,
      "byteOffset": 8976,
      "componentType": 5125,
      "count": 2526,
      "type": "SCALAR"
    },
    {
      "bufferView": 2,
      "byteOffset": 75432,
      "componentType": 5126,
      "count": 657,
      "max": [
        6.078110694885254,
        9.616060256958008,
        0.746605634689331
      ],
      "min": [
        0.9929131865501404,
        8.122848510742188,
        -0.7466055750846863
      ],
      "type": "VEC3"
    },
    {
      "bufferView": 2,
      "byteOffset": 83316,
      "componentType": 5126,
      "count": 657,
      "max": [
        0.9767435789108276,
        0.9731603264808655,
        0.9925650954246521
      ],
      "min": [
        -1.0,
        -0.9836976528167725,
        -0.9925634264945984
      ],
      "type": "VEC3"
    },
    {
      "bufferView": 1,
      "byteOffset": 25144,
      "componentType": 5126,
      "count": 657,
      "max": [
        1.0,
        1.0
      ],
      "min": [
        0.0,
        0.0
      ],
      "type": "VEC2"
    },
    {
      "bufferView": 0,
      "byteOffset": 19080,
      "componentType": 5125,
      "count": 1068,
      "type": "SCALAR"
    },
    {
      "bufferView": 2,
      "byteOffset": 91200,
      "componentType": 5126,
      "count": 1660,
      "max": [
        -0.4290871322154999,
        1.0261894464492798,
        1.3023593425750732
      ],
      "min": [
        -1.3114650249481201,
        -1.862645149230957e-09,
        -0.5836058855056763
      ],
      "type": "VEC3"
    },
    {
      "bufferView": 2,
      "byteOffset": 111120,
      "componentType": 5126,
      "count": 1660,
      "max": [
        0.9999868273735046,
        1.0,
        1.0
      ],
      "min": [
        -0.9998447895050049,
        -1.0,
        -0.9787130355834961
      ],
      "type": "VEC3"
    },
    {
      "bufferView": 1,
      "byteOffset": 30400,
      "componentType": 5126,
      "count": 1660,
      "max": [
        2.481407880783081,
        1.3476545810699463
      ],
      "min": [
        -1.4397671222686768,
        -1.2935142517089844
      ],
      "type": "VEC2"
    },
    {
      "bufferView": 0,
      "byteOffset": 23352,
      "componentType": 5125,
      "count": 2526,
      "type": "SCALAR"
    },
    {
      "bufferView": 2,
      "byteOffset": 131040,
      "componentType": 5126,
      "count": 595,
      "max": [
        -0.3282047510147095,
        4.266575336456299,
        1.2284739017486572
      ],
      "min": [
        -1.4007230997085571,
        0.09963656961917877,
        -0.6176430583000183
      ],
      "type": "VEC3"
    },
    {
      "bufferView": 2,
      "byteOffset": 138180,
      "componentType": 5126,
      "count": 595,
      "max": [
        0.9997639060020447,
        1.0,
        0.9721757173538208
      ],
      "min": [
        -0.9998904466629028,
        -1.0,
        -0.9688780903816223
      ],
      "type": "VEC3"
    },
    {
      "bufferView": 1,
      "byteOffset": 43680,
      "componentType": 5126,
      "count": 595,
      "max": [
        2.2444074153900146,
        3.5440192222595215
      ],
      "min": [
        0.0,
        0.0
      ],
      "type": "VEC2"
    },
    {
      "bufferView": 0,
      "byteOffset": 33456,
      "componentType": 5125,
      "count": 996,
      "type": "SCALAR"
    },
    {
      "bufferView": 2,
      "byteOffset": 145320,
      "componentType": 5126,
      "count": 595,
      "max": [
        1.4007230997085571,
        4.266575336456299,
        1.2284739017486572
      ],
      "min": [
        0.3282047510147095,
        0.09963656961917877,
        -0.6176430583000183
      ],
      "type": "VEC3"
    },
    {
      "bufferView": 2,
      "byteOffset": 152460,
      "componentType": 5126,
      "count": 595,
      "max": [
        0.9998904466629028,
        1.0,
        0.9721757173538208
      ],
      "min": [
        -0.9997639060020447,
        -1.0,
        -0.9688780903816223
      ],
      "type": "VEC3"
    },
    {
      "bufferView": 1,
      "byteOffset": 48440,
      "componentType": 5126,
      "count": 595,
      "max": [
        2.2444074153900146,
        3.5440192222595215
      ],
      "min": [
        0.0,
        0.0
      ],
      "type": "VEC2"
    },
    {
      "bufferView": 0,
      "byteOffset": 37440,
      "componentType": 5125,
      "count": 996,
      "type": "SCALAR"
    },
    {
      "bufferView": 2,
      "byteOffset": 159600,
      "componentType": 5126,
      "count": 657,
      "max": [
        -0.9929131865501404,
        9.616060256958008,
        0.746605634689331
      ],
      "min": [
        -6.078110694885254,
        8.122848510742188,
        -0.7466055750846863
      ],
      "type": "VEC3"
    },
    {
      "bufferView": 2,
      "byteOffset": 167484,
      "componentType": 5126,
      "count": 657,
      "max": [
        1.0,
        0.9731603264808655,
        0.9925650954246521
      ],
      "min": [
        -0.9767435789108276,
        -0.9836976528167725,
        -0.9925634264945984
      ],
      "type": "VEC3"
    },
    {
      "bufferView": 1,
      "byteOffset": 53200,
      "componentType": 5126,
      "count": 657,
      "max": [
        1.0,
        1.0
      ],
      "min": [
        0.0,
        0.0
      ],
      "type": "VEC2"
    },
    {
      "bufferView": 0,
      "byteOffset": 41424,
      "componentType": 5125,
      "count": 1068,
      "type": "SCALAR"
    },
    {
      "bufferView": 2,
      "byteOffset": 175368,
      "componentType": 5126,
      "count": 2744,
      "max": [
        4.363563537597656,
        17.89483642578125,
        3.207016944885254
      ],
      "min": [
        -4.363564968109131,
        4.829634666442871,
        -4.649184703826904
      ],
      "type": "VEC3"
    },
    {
      "bufferView": 2,
      "byteOffset": 208296,
      "componentType": 5126,
      "count": 2744,
      "max": [
        1.0,
        0.9781032800674438,
        0.991409957408905
      ],
      "min": [
        -1.0,
        -1.0,
        -0.991409957408905
      ],
      "type": "VEC3"
    },
    {
      "bufferView": 1,
      "byteOffset": 58456,
      "componentType": 5126,
      "count": 2744,
      "max": [
        0.9770478010177612,
        0.9912504553794861
      ],
      "min": [
        0.005539119243621826,
        0.005475759506225586
      ],
      "type": "VEC2"
    },
    {
      "bufferView": 0,
      "byteOffset": 45696,
      "componentType": 5125,
      "count": 3828,
      "type": "SCALAR"
    }
  ],
  "asset": {
    "extras": {
      "author": "PiotrPePe (https://sketchfab.com/PiotrPePe)",
      "license": "CC-BY-4.0 (http://creativecommons.org/licenses/by/4.0/)",
      "source": "https://sketchfab.com/3d-models/animal-crossing-test-7753bb028fb0445dae2138422699d2e6",
      "title": "Animal Crossing test"
    },
    "generator": "Sketchfab-12.68.0",
    "version": "2.0"
  },
  "bufferViews": [
    {
      "buffer": 0,
      "byteLength": 61008,
      "name": "floatBufferViews",
      "target": 34963
    },
    {
      "buffer": 0,
      "byteLength": 80408,
      "byteOffset": 61008,
      "byteStride": 8,
      "name": "floatBufferViews",
      "target": 34962
    },
    {
      "buffer": 0,
      "byteLength": 241224,
      "byteOffset": 141416,
      "byteStride": 12,
      "name": "floatBufferViews",
      "target": 34962
    }
  ],
  "buffers": [
    {
      "byteLength": 382640,
      "uri": "scene.bin"
    }
  ],
  "images": [
    {
      "uri": "textures/lambert7_baseColor.png"
    }
  ],
  "materials": [
    {
      "doubleSided": true,
      "name": "Mat.3",
      "pbrMetallicRoughness": {
        "baseColorFactor": [
          0.3127,
          0.460593,
          0.59,
          1.0
        ],
        "metallicFactor": 0.0,
        "roughnessFactor": 0.42124199697207376
      }
    },
    {
      "doubleSided": true,
      "name": "material",
      "pbrMetallicRoughness": {
        "baseColorFactor": [
          1.0,
          0.843137,
          0.705882,
          1.0
        ],
        "metallicFactor": 0.0,
        "roughnessFactor": 0.6
      }
    },
    {
      "doubleSided": true,
      "name": "Mat.1",
      "pbrMetallicRoughness": {
        "baseColorFactor": [
          0.8,
          0.576,
          0.639467,
          1.0
        ],
        "metallicFactor": 0.0,
        "roughnessFactor": 0.6
      }
    },
    {
      "doubleSided": true,
      "name": "Mat.2",
      "pbrMetallicRoughness": {
        "baseColorFactor": [
          0.224,
          0.43520000000000003,
          0.7999999999999999,
          1.0
        ],
        "metallicFactor": 0.0,
        "roughnessFactor": 0.6
      }
    },
    {
      "doubleSided": true,
      "name": "lambert7",
      "pbrMetallicRoughness": {
        "baseColorTexture": {
          "index": 0
        },
        "metallicFactor": 0.0
      }
    }
  ],
  "meshes": [
    {
      "name": "pCube25_Mat.3_0",
      "primitives": [
        {
          "attributes": {
            "NORMAL": 1,
            "POSITION": 0,
            "TEXCOORD_0": 2
          },
          "indices": 3,
          "material": 0,
          "mode": 4
        }
      ]
    },
    {
      "name": "pSphere2_Mat_0",
      "primitives": [
        {
          "attributes": {
            "NORMAL": 5,
            "POSITION": 4,
            "TEXCOORD_0": 6
          },
          "indices": 7,
          "material": 1,
          "mode": 4
        }
      ]
    },
    {
      "name": "pSphere1_Mat_0",
      "primitives": [
        {
          "attributes": {
            "NORMAL": 9,
            "POSITION": 8,
            "TEXCOORD_0": 10
          },
          "indices": 11,
          "material": 1,
          "mode": 4
        }
      ]
    },
    {
      "name": "pCube26_Mat.1_0",
      "primitives": [
        {
          "attributes": {
            "NORMAL": 13,
            "POSITION": 12,
            "TEXCOORD_0": 14
          },
          "indices": 15,
          "material": 2,
          "mode": 4
        }
      ]
    },
    {
      "name": "pCube27_Mat.2_0",
      "primitives": [
        {
          "attributes": {
            "NORMAL": 17,
            "POSITION": 16,
            "TEXCOORD_0": 18
          },
          "indices": 19,
          "material": 3,
          "mode": 4
        }
      ]
    },
    {
      "name": "polySurface1_Mat_0",
      "primitives": [
        {
          "attributes": {
            "NORMAL": 21,
            "POSITION": 20,
            "TEXCOORD_0": 22
          },
          "indices": 23,
          "material": 1,
          "mode": 4
        }
      ]
    },
    {
      "name": "pCube28_Mat.2_0",
      "primitives": [
        {
          "attributes": {
            "NORMAL": 25,
            "POSITION": 24,
            "TEXCOORD_0": 26
          },
          "indices": 27,
          "material": 3,
          "mode": 4
        }
      ]
    },
    {
      "name": "pCylinder2_Mat_0",
      "primitives": [
        {
          "attributes": {
            "NORMAL": 29,
            "POSITION": 28,
            "TEXCOORD_0": 30
          },
          "indices": 31,
          "material": 1,
          "mode": 4
        }
      ]
    },
    {
      "name": "pCylinder1_Mat_0",
      "primitives": [
        {
          "attributes": {
            "NORMAL": 33,
            "POSITION": 32,
            "TEXCOORD_0": 34
          },
          "indices": 35,
          "material": 1,
          "mode": 4
        }
      ]
    },
    {
      "name": "polySurface6_Mat_0",
      "primitives": [
        {
          "attributes": {
            "NORMAL": 37,
            "POSITION": 36,
            "TEXCOORD_0": 38
          },
          "indices": 39,
          "material": 1,
          "mode": 4
        }
      ]
    },
    {
      "name": "polySurface8_lambert7_0",
      "primitives": [
        {
          "attributes": {
            "NORMAL": 41,
            "POSITION": 40,
            "TEXCOORD_0": 42
          },
          "indices": 43,
          "material": 4,
          "mode": 4
        }
      ]
    }
  ],
  "nodes": [
    {
      "children": [
        1
      ],
      "matrix": [
        1.0,
        0.0,
        0.0,
        0.0,
        0.0,
        2.220446049250313e-16,
        -1.0,
        0.0,
        0.0,
        1.0,
        2.220446049250313e-16,
        0.0,
        0.0,
        0.0,
        0.0,
        1.0
      ],
      "name": "Sketchfab_model"
    },
    {
      "children": [
        2
      ],
      "matrix": [
        1.0,
        0.0,
        0.0,
        0.0,
        0.0,
        0.0,
        1.0,
        0.0,
        0.0,
        -1.0,
        0.0,
        0.0,
        0.0,
        0.0,
        0.0,
        1.0
      ],
      "name": "3353cc62e7f14667ac1806c801c132ee.fbx"
    },
    {
      "children": [
        3,
        5,
        7,
        9,
        11,
        13,
        15,
        17,
        19,
        21,
        23,
        25
      ],
      "name": "RootNode"
    },
    {
      "children": [
        4
      ],
      "matrix": [
        -0.44261625802479077,
        -0.08633802211671475,
        -0.892545009548037,
        0.0,
        -0.03835784425393088,
        0.9962659012216436,
        -0.077349401078596,
        0.0,
        0.8958903526192941,
        -2.0816681711721685e-17,
        -0.4442752256019651,
        0.0,
        16.371137619018555,
        12.526820182800293,
        35.33575439453125,
        1.0
      ],
      "name": "CINEMA_4D_Editor"
    },
    {
      "name": "Object_4"
    },
    {
      "children": [
        6
      ],
      "name": "pCube25"
    },
    {
      "mesh": 0,
      "name": "pCube25_Mat.3_0"
    },
    {
      "children": [
        8
      ],
      "name": "pSphere2"
    },
    {
      "mesh": 1,
      "name": "pSphere2_Mat_0"
    },
    {
      "children": [
        10
      ],
      "name": "pSphere1"
    },
    {
      "mesh": 2,
      "name": "pSphere1_Mat_0"
    },
    {
      "children": [
        12
      ],
      "name": "pCube26"
    },
    {
      "mesh": 3,
      "name": "pCube26_Mat.1_0"
    },
    {
      "children": [
        14
      ],
      "name": "pCube27"
    },
    {
      "mesh": 4,
      "name": "pCube27_Mat.2_0"
    },
    {
      "children": [
        16
      ],
      "name": "polySurface1"
    },
    {
      "mesh": 5,
      "name": "polySurface1_Mat_0"
    },
    {
      "children": [
        18
      ],
      "name": "pCube28"
    },
    {
      "mesh": 6,
      "name": "pCube28_Mat.2_0"
    },
    {
      "children": [
        20
      ],
      "name": "pCylinder2"
    },
    {
      "mesh": 7,
      "name": "pCylinder2_Mat_0"
    },
    {
      "children": [
        22
      ],
      "name": "pCylinder1"
    },
    {
      "mesh": 8,
      "name": "pCylinder1_Mat_0"
    },
    {
      "children": [
        24
      ],
      "name": "polySurface6"
    },
    {
      "mesh": 9,
      "name": "polySurface6_Mat_0"
    },
    {
      "children": [
        26
      ],
      "name": "polySurface8"
    },
    {
      "mesh": 10,
      "name": "polySurface8_lambert7_0"
    }
  ],
  "samplers": [
    {
      "magFilter": 9729,
      "minFilter": 9987,
      "wrapS": 10497,
      "wrapT": 10497
    }
  ],
  "scene": 0,
  "scenes": [
    {
      "name": "Sketchfab_Scene",
      "nodes": [
        0
      ]
    }
  ],
  "textures": [
    {
      "sampler": 0,
      "source": 0
    }
  ]
}
